<svg width="298" height="79" viewBox="0 0 298 79" fill="none" xmlns="http://www.w3.org/2000/svg">
<g clip-path="url(#clip0_58_2494)">
<path d="M57.0287 14.4284C58.5108 19.4459 60.0412 24.4502 61.4379 29.491C61.7533 30.629 61.6032 31.8945 61.6698 33.1472C60.3591 33.1472 59.2434 33.3042 58.2084 33.0848C57.6415 32.9646 56.8781 32.2714 56.7749 31.7291C56.2609 29.0285 55.9366 26.2922 55.5059 23.2922C50.9912 23.9503 46.7078 24.5748 42.3097 25.2159C42.3097 29.0663 42.3097 32.9389 42.3097 36.9865C46.2337 36.9865 50.1296 36.9865 54.4777 36.9865C54.0665 38.5724 53.8873 39.9756 53.2954 41.1781C53.0739 41.6283 51.8951 41.7631 51.1467 41.7803C48.2649 41.8466 45.3807 41.8072 42.3589 41.8072C42.3589 45.8898 42.3589 49.751 42.3589 53.7885C43.8774 53.7885 45.3674 53.7885 46.8129 53.7885C47.8547 57.903 47.5614 58.2032 42.2513 58.5239C42.2513 63.1934 42.2513 67.8758 42.2513 72.9399C43.2119 72.7109 44.3527 72.7567 45.0087 72.2185C46.5341 70.9668 47.9562 69.5354 49.1785 67.9881C50.6327 66.1472 53.6127 65.5126 55.9139 66.9253C55.3305 67.7052 54.7538 68.4762 54.1771 69.2472C54.2889 69.3942 54.4008 69.5413 54.5126 69.6883C55.555 69.052 56.6611 68.4983 57.6265 67.7623C59.615 66.2462 61.4739 64.5595 63.4885 63.0806C65.3987 61.6783 67.6347 62.0368 69.8041 62.3107C70.1939 62.3599 70.566 62.5476 71.5136 62.8559C69.8051 64.7753 68.3605 66.7095 66.608 68.3105C60.4717 73.9164 53.1368 77.3788 44.9664 78.4687C34.6519 79.8447 25.0233 77.4975 16.5111 71.3304C8.52898 65.5472 3.55075 57.7693 1.20394 48.2728C1.12651 47.9595 0.881669 47.6871 0.56448 47.3566C0.414094 42.3716 0.414094 37.4255 0.556586 32.2169C2.7371 24.3243 5.92701 17.3046 11.6555 11.6463C16.0225 7.33273 21.216 4.30012 27.0508 2.04237C28.2597 1.7974 29.6462 2.05973 29.8002 0.411438C35.0514 0.411438 40.3027 0.411438 45.7479 0.411438C49.6921 1.64666 53.5521 2.62958 57.1635 4.18361C61.2908 5.95967 64.8898 8.65461 68.234 12.0636C66.6619 13.1757 65.3109 14.1759 63.9003 15.0846C63.67 15.2329 63.1763 14.9769 62.6171 14.7224C60.0862 12.881 57.7425 11.225 55.3989 9.56894C55.1664 9.77554 54.934 9.98213 54.7015 10.1887C55.4772 11.602 56.253 13.0152 57.0287 14.4284ZM24.7756 9.35065C21.518 10.8385 18.5416 12.7141 15.9635 15.6304C17.8531 16.2537 19.5599 16.8168 21.1905 17.3547C22.6147 14.6046 23.9411 12.0432 25.4507 9.45251C25.3234 9.40603 25.1962 9.35956 24.7756 9.35065ZM31.424 24.5758C29.0269 24.1982 26.6298 23.8207 23.8808 23.3877C23.1937 28.0849 22.5488 32.4931 21.907 36.8798C27.1745 36.8798 32.1607 36.8798 37.1433 36.8798C37.1433 32.926 37.1433 29.1246 37.1433 25.197C35.3003 24.9999 33.5465 24.8124 31.424 24.5758ZM32.5371 41.7413C29.1804 41.7413 25.8237 41.7413 21.9421 41.7413C22.6297 46.6521 23.251 51.0904 23.8678 55.4956C28.5546 54.8542 32.8417 54.2676 37.1277 53.681C37.1277 49.7718 37.1277 45.9013 37.1277 42.0471C35.6371 41.9269 34.2692 41.8165 32.5371 41.7413ZM18.1907 29.735C18.5607 27.607 18.9936 25.4867 19.2609 23.346C19.3373 22.7342 19.1212 21.6787 18.7187 21.485C16.8249 20.5734 14.8196 19.8909 12.7707 19.0942C9.22256 24.5296 6.2279 30.149 6.16158 36.8982C10.051 36.8982 13.6683 36.8982 17.3165 36.8982C17.5791 34.5438 17.8275 32.3172 18.1907 29.735ZM18.9098 57.2106C19.0645 56.9094 19.3916 56.5808 19.3481 56.3113C18.5846 51.585 17.7758 46.8661 16.9561 42.0231C13.5837 42.0231 9.9797 42.0231 6.099 42.0231C6.57053 48.4727 8.88278 53.9797 12.4478 59.0144C12.6721 59.3311 13.6261 59.3913 14.1168 59.2201C15.6453 58.6872 17.1143 57.9856 18.9098 57.2106ZM27.5651 18.9275C30.7408 19.4416 33.9164 19.9558 37.114 20.4735C37.114 15.3966 37.114 10.905 37.114 5.72683C35.6566 6.36158 34.1857 6.54357 33.5356 7.36643C31.0197 10.5513 28.7544 13.9328 26.4204 17.2582C25.7487 18.2153 26.1072 18.7747 27.5651 18.9275ZM30.2036 67.6853C32.0601 69.9553 33.6272 72.6186 37.112 72.8452C37.112 68.086 37.112 63.4766 37.112 58.4621C33.2885 58.982 29.6547 59.476 25.3988 60.0547C27.1724 62.9173 28.5839 65.1956 30.2036 67.6853ZM48.8855 19.7071C50.3764 19.3609 51.8673 19.0147 53.4721 18.642C51.6845 14.0581 49.0492 10.1774 45.3647 7.0717C44.6877 6.50105 43.4895 6.54156 42.3261 6.24807C42.3261 11.1926 42.3261 15.6003 42.3261 20.2578C44.4793 20.0801 46.5004 19.9133 48.8855 19.7071ZM18.1843 65.2057C20.3701 66.7122 22.5558 68.2187 24.7415 69.7251C24.8349 69.5715 24.9283 69.4179 25.0217 69.2642C23.7065 66.7429 22.3912 64.2216 21.0559 61.6619C19.4379 62.2136 17.9661 62.7154 16.0464 63.37C16.8982 64.1048 17.4239 64.5583 18.1843 65.2057Z" fill="#292728"/>
<path d="M298.414 42.2431C293.231 47.5316 287.956 52.5963 282.916 57.882C281.181 59.7017 279.526 60.8173 276.932 60.5234C275.166 60.3233 273.359 60.4852 271.166 60.4852C272.938 58.4766 274.502 56.6762 276.096 54.9029C279.576 51.0324 283.106 47.2063 286.539 43.295C287.603 42.0827 288.683 41.4261 290.385 41.5303C292.923 41.6857 295.478 41.5697 298.22 41.5632C298.414 41.7402 298.414 41.9231 298.414 42.2431Z" fill="#292728"/>
<path d="M224.67 23.449C225.857 23.389 226.85 23.3319 227.844 23.2749C227.904 23.078 227.964 22.881 228.025 22.6841C226.699 21.8494 225.408 20.952 224.038 20.199C222.857 19.5506 221.51 19.1826 220.387 18.4597C219.854 18.1166 219.501 17.2561 219.418 16.5868C219.386 16.332 220.337 15.6807 220.844 15.6769C228.629 15.6176 236.416 15.5973 244.201 15.6565C246.856 15.6766 248.582 17.8055 247.635 20.2745C246.29 23.7815 245.475 27.4858 244.229 31.0351C242.837 35.0031 242.73 34.9743 238.712 34.9742C225.276 34.974 211.84 34.9742 198.403 34.974C193.932 34.974 192.294 32.4467 193.92 28.2175C195.292 24.6483 196.597 21.0508 197.812 17.4261C198.247 16.1264 198.846 15.5311 200.286 15.6075C202.409 15.72 204.542 15.6365 207.34 15.6365C205.858 20.5103 204.457 25.1154 202.911 30.1984C208.114 30.1984 212.981 30.1984 218.165 30.1984C218.787 28.3382 219.573 25.9899 220.422 23.452C221.762 23.452 223.12 23.452 224.67 23.449ZM232.152 21.397C231.445 21.8767 230.366 22.2081 230.102 22.8642C229.326 24.7862 228.828 26.8265 228.347 28.8501C228.274 29.1606 228.853 29.9553 229.158 29.9704C231.221 30.072 233.293 30.0777 235.356 29.9813C235.792 29.9609 236.446 29.4719 236.586 29.06C237.42 26.5999 238.134 24.0992 238.953 21.3968C236.649 21.3968 234.59 21.3968 232.152 21.397Z" fill="#E96F1F"/>
<path d="M144.243 19.2107C139.893 24.0317 135.722 28.9017 131.448 33.6801C130.855 34.343 129.767 34.8706 128.88 34.9164C125.924 35.0693 122.954 34.9743 119.99 34.9743C119.829 34.8031 119.668 34.6318 119.506 34.4606C120.424 33.7268 121.451 33.0931 122.242 32.2426C126.725 27.4231 131.187 22.5822 135.576 17.6784C136.837 16.2699 138.084 15.5395 140.125 15.5731C148.882 15.7176 157.643 15.683 166.401 15.5972C168.338 15.5783 169.196 16.3244 168.83 18.096C168.367 20.3374 167.672 22.5359 166.997 24.7286C166.148 27.485 165.111 30.1883 164.368 32.9709C163.971 34.4609 163.396 35.047 161.761 35.0167C155.969 34.9097 150.175 34.977 144.381 34.9737C141.546 34.9721 140.862 34.1258 141.578 31.3349C142.36 28.2863 143.268 25.2694 144.043 22.2191C144.288 21.2553 144.282 20.2285 144.243 19.2107ZM151.454 25.6914C151.128 27.0572 150.803 28.4231 150.353 30.3133C152.684 30.3133 154.748 30.6751 156.549 30.1477C157.348 29.9137 157.618 27.8845 158.12 26.6669C158.38 26.0367 158.661 25.4112 158.865 24.7627C159.243 23.563 159.572 22.3479 159.978 20.9457C159.105 20.8728 158.576 20.8012 158.046 20.7887C152.953 20.6686 152.953 20.6714 151.454 25.6914Z" fill="#E96F1F"/>
<path d="M76.1553 37.0312C78.7722 37.0285 81.1823 37.0363 83.5922 37.0183C84.6314 37.0106 85.6899 37.0786 85.7454 35.5129C85.7568 35.1906 86.5495 34.6902 87.0269 34.6313C88.1055 34.4981 89.2122 34.5894 90.736 34.5894C89.7057 41.3655 87.5522 47.723 85.9838 54.2545C74.5694 54.2545 63.2209 54.2545 51.8223 54.2545C53.1985 48.7047 54.5354 43.2149 55.9266 37.7387C56.7917 34.3334 56.8283 34.3437 60.657 34.9671C60.9214 35.0102 61.1917 35.0176 61.6291 35.0569C61.5287 35.6832 61.4401 36.2359 61.3126 37.0312C66.2263 37.0312 71.0874 37.0312 76.1553 37.0312ZM60.3743 45.0054C59.9843 46.4047 59.5943 47.8041 59.202 49.212C63.0236 49.6841 63.0876 49.6615 64.0091 46.2772C64.3771 44.9259 64.6393 43.5461 64.9726 42.0781C63.754 42.0781 62.61 42.0781 61.3856 42.0781C61.0699 42.9232 60.744 43.7955 60.3743 45.0054ZM78.2423 44.7525C77.9332 46.2407 77.6241 47.7289 77.2923 49.3266C78.6269 49.3266 79.7815 49.3266 81.089 49.3266C81.6957 46.9297 82.302 44.5344 82.9233 42.08C79.1943 41.8531 79.1943 41.8531 78.2423 44.7525ZM70.2114 42.3358C69.5185 44.6022 68.8256 46.8686 68.0593 49.3752C69.0945 49.3752 69.8618 49.4919 70.571 49.3402C71.1976 49.2061 72.1443 48.893 72.2841 48.4509C72.9385 46.3818 73.3627 44.2408 73.8816 42.073C72.6256 42.073 71.5412 42.073 70.2114 42.3358Z" fill="#292728"/>
<path d="M174.042 34.9729C171.311 34.9739 168.767 34.9739 165.633 34.9739C167.744 28.3651 169.771 22.0223 171.814 15.6294C178.662 15.6294 185.345 15.6175 192.027 15.6393C193.391 15.6438 195.223 18.0473 194.819 19.615C194.186 22.0702 193.314 24.4732 192.395 26.8415C192.124 27.5401 191.462 28.2879 190.787 28.5904C189.475 29.1786 189.354 29.7194 190.15 30.8902C190.933 32.0413 191.43 33.384 192.213 34.9673C189.101 34.9673 186.249 34.995 183.399 34.9275C183.09 34.9202 182.698 34.4121 182.509 34.0511C181.918 32.92 181.417 31.7422 180.855 30.5954C180.682 30.2421 180.486 29.857 180.194 29.6114C178.405 28.1071 178.395 28.1191 178.023 25.7959C177.324 28.143 176.708 30.5189 175.883 32.8215C175.594 33.6309 174.795 34.2604 174.042 34.9729ZM184.263 21.4009C182.632 21.4009 181.001 21.4009 179.285 21.4009C179.285 22.3416 179.285 23.0503 179.285 23.8619C181.096 23.8619 182.818 23.9699 184.51 23.7925C184.984 23.7428 185.37 22.8536 185.796 22.3495C185.412 22.032 185.027 21.7146 184.263 21.4009Z" fill="#E96F1F"/>
<path d="M180.862 41.6441C183.584 41.6441 186.307 41.6441 188.941 41.6441C186.992 47.9882 185.081 54.2079 183.152 60.4847C173.729 60.4847 164.36 60.5158 154.992 60.4646C152.375 60.4503 150.879 58.8065 151.487 56.2055C152.366 52.4483 153.649 48.7806 154.842 45.1009C155.991 41.5568 156.036 41.5714 159.814 41.5714C161.393 41.5714 162.971 41.5714 164.987 41.5714C163.49 46.3184 162.063 50.8465 160.582 55.5441C165.526 55.5441 170.381 55.5441 175.326 55.5441C175.255 56.3118 175.199 56.9147 175.144 57.5177C175.335 57.5663 175.527 57.6149 175.719 57.6635C177.223 52.5015 178.727 47.3394 180.434 42.0404C180.738 41.8394 180.813 41.753 180.862 41.6441Z" fill="#292728"/>
<path d="M98.3139 41.5744C106.083 41.5709 113.667 41.6853 121.245 41.5288C125.884 41.4329 126.027 43.2481 125.29 46.1052C124.119 50.6482 122.197 55.0044 120.486 59.3986C120.293 59.8957 119.416 60.4339 118.852 60.4387C110.929 60.5063 103.006 60.4846 95.0166 60.4846C96.1406 56.7571 97.2367 53.1222 98.3831 49.3206C101.253 49.3206 104.179 49.3206 107.105 49.3206C107.184 49.1383 107.263 48.956 107.342 48.7737C105.918 47.9392 104.518 47.0587 103.063 46.2826C101.466 45.4311 99.8018 44.7041 98.195 43.8698C96.8693 43.1814 96.6568 42.386 98.3139 41.5744ZM108.46 47.1621C107.583 49.8788 106.706 52.5954 105.756 55.5366C108.427 55.5366 110.823 55.549 113.22 55.5209C113.52 55.5173 114.011 55.3726 114.088 55.1707C115.097 52.5219 116.047 49.851 117.109 46.9169C113.961 46.9169 111.321 46.9169 108.46 47.1621Z" fill="#292728"/>
<path d="M249.356 41.5714C255.751 41.5708 261.958 41.5702 268.166 41.571C270.201 41.5712 271.673 42.8244 271.244 44.7238C270.619 47.4944 269.526 50.1613 268.619 52.8676C268.534 53.1206 268.296 53.3236 268.215 53.5768C267.883 54.606 265.531 54.09 266.345 55.9221C266.805 56.9595 267.483 57.9003 268.045 58.8948C268.271 59.2955 268.449 59.7233 268.813 60.4789C265.725 60.4789 262.877 60.5527 260.04 60.4068C259.563 60.3822 259.067 59.4496 258.698 58.8633C257.667 57.2234 257.447 54.9346 254.747 54.4794C255.161 53.0233 255.484 51.6634 255.965 50.3614C256.076 50.063 256.719 49.8377 257.138 49.7989C258.027 49.7166 258.93 49.7481 259.825 49.7888C261.787 49.8781 262.456 48.8522 262.395 47.0797C256.124 45.9352 256.132 45.9373 254.347 51.7708C253.603 54.2025 252.786 56.6124 252.076 59.0535C251.792 60.0286 251.385 60.5019 250.259 60.4624C247.712 60.3733 245.161 60.4344 242.3 60.4344C242.822 58.8502 243.301 57.4242 243.763 55.9929C245.15 51.6919 246.506 47.3802 247.946 43.0968C248.141 42.5177 248.751 42.0767 249.356 41.5714Z" fill="#292728"/>
<path d="M210.249 41.644C213.442 41.644 216.635 41.644 220.253 41.644C219.614 42.4383 219.319 42.8752 218.956 43.2475C213.635 48.7084 208.323 54.1773 202.95 59.5874C202.456 60.0851 201.576 60.4135 200.859 60.4449C198.453 60.55 196.04 60.4848 193.464 60.4848C192.016 54.2692 190.568 48.0544 189.059 41.5732C191.807 41.5732 194.469 41.4512 197.106 41.6555C197.8 41.7092 198.759 42.6582 199.004 43.3916C199.823 45.8494 200.375 48.3956 201.118 51.2489C204.061 48.1731 206.916 45.1911 209.91 42.0508C210.142 41.8294 210.208 41.7466 210.249 41.644Z" fill="#292728"/>
<path d="M241.199 56.2004C240.009 60.4854 240.009 60.4854 235.43 60.4854C230.468 60.4854 225.507 60.4857 220.546 60.4853C217.149 60.485 215.637 58.4686 216.674 55.161C217.784 51.6219 219.041 48.1284 220.164 44.5932C220.458 43.6665 220.495 42.6591 220.663 41.6049C228.555 41.6049 236.753 41.6049 245.165 41.6049C244.92 42.6961 244.758 43.7667 244.43 44.7848C244.061 45.9318 243.452 46.5909 241.945 46.5207C238.232 46.3478 234.504 46.5198 230.785 46.4364C229.328 46.4037 228.506 46.9077 228.142 48.2997C227.529 50.6473 226.866 52.9821 226.163 55.5442C230.869 55.5442 235.201 55.5255 239.532 55.5663C240.118 55.5718 240.701 55.8762 241.199 56.2004Z" fill="#2A2829"/>
<path d="M128.733 43.2067C129.221 42.4314 129.149 41.5036 130.467 41.5214C138.107 41.6243 145.749 41.5717 153.364 41.5717C153.439 41.772 153.552 41.9168 153.518 42.0087C151.881 46.4979 151.879 46.4932 146.983 46.499C144.16 46.5024 141.337 46.5381 138.514 46.5267C137.36 46.5221 136.72 46.7877 136.437 48.1431C135.937 50.5439 135.074 52.87 134.285 55.4849C139.473 55.4849 144.388 55.4849 149.466 55.4849C149.135 56.9976 148.941 58.3147 148.522 59.5565C148.384 59.9659 147.665 60.441 147.207 60.445C140.665 60.5024 134.121 60.5652 127.581 60.4282C125.907 60.3931 123.827 58.2659 124.725 55.5334C126.057 51.4824 127.389 47.4314 128.733 43.2067Z" fill="#292728"/>
<path d="M51.8459 55.596C57.968 55.591 63.8967 55.5858 69.8253 55.584C75.7344 55.5822 81.6434 55.5836 87.7963 55.5836C87.3714 57.4681 87.0682 58.813 86.7234 60.3424C84.9906 60.1851 84.0985 61.0281 83.3741 62.7747C82.567 64.7203 79.9457 64.6862 78.1959 63.2229C77.116 63.573 76.1838 63.9983 75.2072 64.1632C73.7284 64.4128 72.755 63.7972 72.8586 62.1706C72.9408 60.8807 72.1914 60.516 71.1484 60.5C68.8046 60.4642 66.4497 60.3619 64.1194 60.5429C62.7923 60.646 61.4828 60.8315 60.7241 62.5549C59.9824 64.2398 58.1236 64.4407 56.2725 64.0165C55.4613 63.8307 54.4743 63.852 53.705 64.1415C51.4512 64.9898 50.1792 64.2883 49.6614 61.8421C49.5284 61.2137 49.0029 60.6675 48.4274 60.1873C48.045 56.8057 48.8754 55.6813 51.8459 55.596Z" fill="#2B292A"/>
<path d="M120.744 30.7493C119.986 31.6281 119.329 32.4004 118.681 33.1794C117.741 34.3081 116.788 35.2156 115.063 35.0171C113.361 34.8213 111.615 34.9025 109.896 34.9965C108.442 35.0761 107.813 34.7487 107.477 33.0992C106.404 27.8406 105.09 22.6263 103.705 17.4381C103.28 15.8443 103.903 15.6272 105.163 15.6326C107.232 15.6413 109.304 15.6929 111.37 15.6139C112.66 15.5646 113.198 16.0845 113.436 17.3147C114.061 20.5439 114.793 23.7526 115.489 26.9678C115.528 27.1479 115.636 27.3133 115.882 27.8694C117.204 26.4755 118.579 25.3487 119.525 23.938C120.468 22.5321 121.088 23.0023 121.891 23.8708C124.217 26.3884 124.049 27.4591 120.744 30.7493Z" fill="#E96F1F"/>
<path d="M65.5288 23.7481C64.0593 22.4139 62.7219 21.1523 61.3301 19.953C60.1995 18.9788 60.9888 18.3557 61.74 17.8894C63.9225 16.5346 66.1585 15.2644 68.3823 13.9761C69.3102 13.4385 70.2605 12.9391 71.502 12.2567C71.5601 13.3943 71.6122 14.4132 71.6743 15.6299C75.7795 15.6299 79.8075 15.6299 84.1867 15.6299C83.7698 17.7634 83.4033 19.6387 82.9946 21.7306C78.678 21.7306 74.2381 21.7306 69.531 21.7306C69.531 22.7808 69.612 23.6501 69.4993 24.4939C69.4361 24.9668 69.1493 25.5381 68.7755 25.7929C68.56 25.9398 67.9185 25.6201 67.5605 25.377C66.8845 24.9181 66.2746 24.3629 65.5288 23.7481Z" fill="#E96F1F"/>
<path d="M72.486 31.6829C71.7354 31.6826 71.1832 31.6648 70.6326 31.6855C69.2886 31.7361 68.933 31.0522 69.2352 29.8646C69.2515 29.8006 69.3174 29.7489 69.3332 29.6849C70.3649 25.5094 70.3646 25.5095 74.6443 25.5097C77.5348 25.5098 80.4252 25.5097 83.2812 25.5097C83.7683 24.2048 84.2235 22.9855 84.8009 21.4388C87.4263 23.8091 89.8029 25.9228 92.1139 28.1052C92.2877 28.2694 92.1444 29.1503 91.8936 29.3156C88.5874 31.4948 85.2354 33.6052 81.489 35.9913C81.5869 34.4858 81.6533 33.4649 81.7405 32.1238C78.9126 31.1245 75.7533 31.9412 72.486 31.6829Z" fill="#E96F1F"/>
<path d="M273.979 48.1738C273.437 45.9263 272.905 43.8523 272.321 41.5707C275.167 41.5707 277.935 41.3152 280.609 41.7003C281.635 41.848 282.447 43.4578 283.42 44.4675C280.624 47.4959 278.045 50.2881 275.222 53.3455C274.751 51.4337 274.371 49.8905 273.979 48.1738Z" fill="#2A2829"/>
<path d="M177.16 74.5376C179.146 73.4044 179.869 71.551 180.359 69.704C180.913 67.6128 182.006 66.7833 184.159 67.0631C185.365 67.2199 186.609 67.0913 187.99 67.0913C187.631 68.1643 187.416 69.15 186.984 70.0303C186.104 71.8236 186.299 73.7024 186.215 75.591C186.179 76.3952 185.436 77.168 185.014 77.9552C184.803 77.9143 184.592 77.8735 184.381 77.8326C184.151 77.1592 183.922 76.4858 183.663 75.7242C182.185 75.7242 180.539 75.7242 178.878 75.7242C178.775 75.7821 178.605 75.8188 178.55 75.9182C178.141 76.6646 178.184 78.1642 176.813 77.3772C176.48 77.1861 176.956 75.6019 177.16 74.5376ZM181.32 71.9313C181.156 72.5633 180.992 73.1953 180.828 73.8291C183.857 74.5496 184.069 73.26 184.917 69.2994C182.432 68.1315 182.265 70.3329 181.32 71.9313Z" fill="#2F2D2E"/>
<path d="M162.255 76.8465C162.554 76.03 162.821 75.3468 163.179 74.7139C164.441 72.4784 165.715 70.2483 167.034 68.0463C167.274 67.6464 167.739 67.1293 168.124 67.1086C169.956 67.0102 171.796 67.0646 173.986 67.0646C173.499 68.4239 173.191 69.424 172.787 70.3838C172.186 71.8074 171.626 73.0996 172.113 74.8129C172.437 75.9546 171.998 77.4938 170.098 77.8371C169.924 77.0907 169.777 76.4579 169.604 75.714C168.394 75.714 167.211 75.5816 166.078 75.7607C165.324 75.8798 164.559 76.343 163.951 76.8374C163.354 77.3231 162.978 78.2874 162.255 76.8465ZM169.657 73.3962C170.067 72.0246 170.478 70.6531 170.895 69.2614C168.241 69.03 166.816 70.7574 166.906 74.2338C167.773 74.022 168.586 73.8232 169.657 73.3962Z" fill="#2E2C2D"/>
<path d="M228.55 51.2671C228.938 50.3063 229.265 49.519 229.628 48.6464C233.694 48.6464 237.8 48.6464 241.906 48.6464C241.945 48.7821 242.038 48.9231 242.006 49.025C240.726 53.0816 240.724 53.0811 236.35 53.0811C233.743 53.0811 231.137 53.0811 228.489 53.0811C228.489 52.4728 228.489 51.9567 228.55 51.2671Z" fill="#2C2A2B"/>
<path d="M136.583 52.3416C136.718 51.6406 136.915 51.1299 136.977 50.6036C137.17 48.9703 137.919 48.3719 139.687 48.463C143.164 48.6421 146.656 48.5157 150.095 48.5157C150.157 48.7585 150.204 48.8333 150.187 48.8897C148.951 53.0803 148.95 53.0797 144.658 53.0785C142.391 53.0778 140.123 53.1073 137.857 53.0542C137.429 53.0442 137.008 52.7095 136.583 52.3416Z" fill="#292728"/>
<path d="M209.01 75.3715C208.207 75.7001 207.538 75.9484 206.349 76.3893C207.289 73.1818 208.012 70.448 208.943 67.786C209.107 67.3169 210.139 67.1479 211.323 66.5711C210.857 68.4621 210.549 69.712 210.167 71.2628C213.12 70.8244 213.4 65.9411 217.496 67.4571C215.543 70.2709 215.886 74.0975 213.081 76.2813C212.792 76.1588 212.503 76.0363 212.214 75.9137C212.483 74.8245 212.752 73.7352 213.021 72.646C212.846 72.4906 212.672 72.3352 212.497 72.1798C211.379 73.2169 210.261 74.254 209.01 75.3715Z" fill="#2E2C2D"/>
<path d="M218.622 75.677C217.959 75.6456 217.487 75.6205 216.53 75.5694C217.499 72.7341 218.394 70.0867 219.328 67.4531C219.392 67.2736 219.754 67.0845 219.972 67.0914C221.673 67.1451 223.385 67.1444 225.068 67.3622C226.545 67.5534 226.678 68.5064 226.125 69.7611C225.706 70.7135 225.358 71.7248 225.172 72.7449C224.815 74.6991 223.747 75.6874 221.7 75.7102C220.738 75.7209 219.776 75.6935 218.622 75.677ZM221.488 74.066C221.977 73.6643 222.467 73.2625 222.957 72.8607C222.026 72.4683 221.095 72.0758 219.971 71.6022C219.738 73.1842 219.409 74.2464 221.488 74.066ZM222.775 70.3894C223.23 70.1666 223.684 69.9438 224.139 69.7209C222.756 69.1438 221.425 68.3044 220.364 70.213C221.253 70.3036 221.838 70.3631 222.775 70.3894Z" fill="#2E2C2D"/>
<path d="M143.84 72.5249C143.926 68.558 147.338 66.6934 150.614 67.0536C152.974 67.313 154.182 69.2229 153.275 71.3892C151.935 74.5902 149.924 75.8766 146.517 75.712C144.811 75.6296 143.86 74.5698 143.84 72.5249ZM148.978 73.6465C150.842 73.1932 151.38 71.78 150.88 70.2496C150.696 69.6872 149.091 69.0613 148.399 69.2826C146.248 69.9702 145.516 71.5889 146.398 73.6491C147.117 73.6491 147.868 73.6491 148.978 73.6465Z" fill="#2C2A2B"/>
<path d="M120.341 73.9568C118.729 76.1324 116.505 75.9252 114.436 75.6368C112.316 75.3414 111.507 72.0514 112.872 69.8836C114.247 67.7002 117.42 66.4386 119.841 67.1125C121.138 67.4734 122.462 69.5376 122.028 70.8396C121.675 71.899 120.99 72.8489 120.341 73.9568ZM114.654 73.0518C115.753 73.2448 116.997 73.8358 117.906 73.5084C118.674 73.2318 119.218 71.9448 119.536 70.9971C119.69 70.536 119.187 69.3898 118.83 69.3197C117.972 69.1516 116.702 69.1106 116.188 69.6138C115.412 70.3734 115.138 71.64 114.654 73.0518Z" fill="#2C2A2B"/>
<path d="M91.0562 72.4209C91.3251 68.7252 95.0213 66.2514 98.6089 67.1738C100.718 67.7161 100.634 69.4367 100.542 71.0939C100.441 72.9209 98.5396 75.4304 96.6989 75.6008C94.9863 75.7594 92.9105 76.5061 91.67 74.4443C91.3427 73.9003 91.2561 73.2131 91.0562 72.4209ZM96.0018 73.6529C96.5054 73.3615 97.0722 73.1409 97.5002 72.7644C98.5366 71.8527 99.0303 70.5033 97.9721 69.6089C97.3804 69.1089 95.8595 69.3802 94.8944 69.7056C93.4317 70.1989 93.2436 71.6466 93.5835 72.8869C93.6975 73.3029 94.9253 73.4172 96.0018 73.6529Z" fill="#2C2A2B"/>
<path d="M110.905 72.2735C109.443 75.227 106.486 76.6053 103.539 75.6095C102.818 75.3661 101.988 74.3564 101.876 73.6011C101.254 69.4145 104.548 66.3724 108.766 67.0688C110.29 67.3205 111.406 68.7554 111.238 70.2938C111.172 70.9039 111.028 71.5057 110.905 72.2735ZM103.889 72.2136C103.852 73.5321 104.668 74.1458 105.801 73.9168C107.409 73.5919 108.876 72.936 108.898 70.8585C108.91 69.6983 108.608 69.0909 107.296 69.1062C105.359 69.1287 104.343 70.1294 103.889 72.2136Z" fill="#2B292A"/>
<path d="M135.339 69.5538C135.653 68.6443 135.965 67.9054 136.319 67.065C137.738 67.065 139.18 67.0358 140.62 67.0721C142.626 67.1227 143.396 68.4283 142.609 70.2756C142.312 70.9724 142.044 71.7277 141.992 72.472C141.863 74.3429 140.671 75.6497 138.791 75.7017C137.147 75.7472 135.501 75.7112 133.487 75.7112C134.145 73.5813 134.74 71.6528 135.339 69.5538ZM138.791 72.0019C137.489 72.0516 135.861 71.6713 136.206 74.0205C137.171 74.0205 138.16 74.1885 139.042 73.9554C139.544 73.8227 139.871 73.0345 140.276 72.5415C139.9 72.3626 139.523 72.1836 138.791 72.0019ZM140.178 70.4419C140.373 69.9402 140.569 69.4385 140.86 68.6917C139.124 68.8907 137.206 67.891 137.385 70.7775C138.243 70.6863 139.036 70.602 140.178 70.4419Z" fill="#2B292A"/>
<path d="M192.423 75.7129C190.992 75.7129 189.759 75.7129 187.94 75.7129C188.85 72.9107 189.646 70.3476 190.551 67.8231C190.655 67.5309 191.353 67.3319 191.792 67.2959C193.496 67.1561 195.207 67.0996 196.928 67.0115C197.205 68.6196 196.647 69.2322 195.186 69.1302C194.172 69.0594 193.148 69.1166 191.897 69.1166C192.642 71.468 194.763 69.557 195.712 70.8164C195.579 72.2697 194.583 72.4955 193.276 72.4408C192.263 72.3983 190.956 72.0035 190.833 73.963C192.132 73.8976 193.402 73.8337 194.811 73.7627C194.864 74.358 194.915 74.9414 194.982 75.7128C194.11 75.7128 193.365 75.7128 192.423 75.7129Z" fill="#2D2B2C"/>
<path d="M198.688 75.0797C197.58 75.4409 196.531 75.6475 195.483 75.854C195.388 75.6638 195.293 75.4735 195.198 75.2832C195.544 74.8794 195.813 74.2638 196.249 74.1078C198.345 73.3574 198.918 71.4704 199.405 69.7255C199.975 67.6825 200.934 66.7201 203.127 67.0333C204.198 67.1862 205.308 67.0598 206.884 67.0598C205.901 69.9438 205.069 72.5923 204.048 75.1669C203.889 75.5688 202.871 75.6343 201.789 76.0198C202.658 73.472 203.342 71.4705 204.027 69.4626C201.333 68.8013 201.312 68.8851 200.519 71.3189C200.108 72.5788 199.349 73.7265 198.688 75.0797Z" fill="#302F30"/>
<path d="M161.043 74.9203C160.609 75.4645 160.235 75.8593 159.86 76.2541C159.623 76.1426 159.385 76.0312 159.147 75.9198C159.716 73.7432 160.286 71.5665 160.875 69.3139C159.244 68.9554 158.239 69.3129 157.742 70.879C157.396 71.9662 156.846 72.9908 156.364 74.033C155.671 75.5344 154.54 76.0658 152.567 75.4637C155.757 73.4503 156.18 70.2394 157.056 67.1422C159.119 67.1422 161.237 67.1422 163.871 67.1422C162.904 69.8083 162.004 72.2897 161.043 74.9203Z" fill="#2E2C2D"/>
<path d="M229.308 73.8274C228.401 73.9621 227.493 74.0967 226.585 74.2313C226.426 74.0841 226.266 73.9368 226.106 73.7896C228.452 72.7039 228.473 70.7687 227.994 68.1903C229.125 69.0832 229.679 69.5199 230.387 69.8514C230.541 69.7462 230.538 69.7075 230.377 69.8824C230.323 70.7857 230.429 71.5142 230.54 72.3438C230.345 72.7091 230.144 72.9732 229.699 73.1074C229.399 73.2828 229.345 73.5881 229.294 73.8767C229.297 73.86 229.308 73.8274 229.308 73.8274Z" fill="#393738"/>
<path d="M230.538 69.7075C230.538 69.7075 230.541 69.7462 230.547 69.7646C231.049 69.5849 231.89 69.1143 231.985 69.2336C232.529 69.9127 233.437 71.1774 233.229 71.4285C232.246 72.6124 231.501 74.3658 229.374 73.9551C229.308 73.8274 229.298 73.86 229.4 73.7639C229.65 73.5244 229.797 73.3808 229.944 73.2373C230.145 72.9732 230.345 72.7091 230.692 72.287C231.91 71.1777 231.152 70.4515 230.538 69.7075Z" fill="#302F30"/>
<path d="M130.337 69.9508C131.193 69.6057 132.049 69.2606 133.078 68.8458C133.139 69.1763 133.353 69.7679 133.243 69.8348C131.582 70.8469 131.435 72.3258 132.231 74.2721C130.158 73.7064 129.927 72.4981 129.969 70.9432C129.964 70.772 129.969 70.8019 130.12 70.746C130.313 70.4347 130.355 70.1793 130.377 69.9217C130.359 69.9195 130.337 69.9508 130.337 69.9508Z" fill="#2E2C2D"/>
<path d="M129.979 70.7749C128.686 71.2033 128.551 71.3609 128.875 72.3301C129.08 72.9429 129.378 73.5251 129.634 74.121C129.425 74.2735 129.216 74.4259 129.007 74.5784C128.403 73.8145 127.622 73.1212 127.275 72.2557C127.109 71.8448 127.701 71.0557 128.078 70.5279C128.505 69.9284 129.04 69.3886 129.603 68.9089C129.801 68.7397 130.219 68.8242 130.536 68.7929C130.486 69.0846 130.436 69.3763 130.361 69.8094C130.337 69.9508 130.359 69.9195 130.225 69.9787C130.051 70.2925 130.01 70.5472 129.969 70.8019C129.969 70.8019 129.964 70.772 129.979 70.7749Z" fill="#3F3E3F"/>
<path d="M180.755 41.6248C180.813 41.753 180.738 41.8394 180.558 41.9389C180.535 41.8514 180.591 41.7284 180.755 41.6248Z" fill="#292728"/>
<path d="M210.143 41.6231C210.208 41.7466 210.142 41.8294 209.978 41.9277C209.949 41.8427 209.993 41.7225 210.143 41.6231Z" fill="#2A2829"/>
<path d="M25.1187 9.35492C25.196 9.35955 25.3232 9.40602 25.3589 9.46713C25.2673 9.48176 25.1686 9.39676 25.1187 9.35492Z" fill="#F9F9F9"/>
</g>
<defs>
<clipPath id="clip0_58_2494">
<rect width="298" height="79" fill="white"/>
</clipPath>
</defs>
</svg>
